<svg width="200" height="164" viewBox="0 0 200 164" fill="none" xmlns="http://www.w3.org/2000/svg">
<path d="M172.727 36.4444H154.545V18.2222H172.727C175.138 18.2222 177.451 17.2623 179.156 15.5536C180.86 13.845 181.818 11.5275 181.818 9.11111C181.818 6.69469 180.86 4.37725 179.156 2.66858C177.451 0.959918 175.138 0 172.727 0H118.182C115.771 0 113.458 0.959918 111.754 2.66858C110.049 4.37725 109.091 6.69469 109.091 9.11111C109.091 11.5275 110.049 13.845 111.754 15.5536C113.458 17.2623 115.771 18.2222 118.182 18.2222H136.364V36.4444H63.6364V18.2222H81.8182C84.2292 18.2222 86.5415 17.2623 88.2464 15.5536C89.9513 13.845 90.9091 11.5275 90.9091 9.11111C90.9091 6.69469 89.9513 4.37725 88.2464 2.66858C86.5415 0.959918 84.2292 0 81.8182 0H27.2727C24.8617 0 22.5494 0.959918 20.8445 2.66858C19.1396 4.37725 18.1818 6.69469 18.1818 9.11111C18.1818 11.5275 19.1396 13.845 20.8445 15.5536C22.5494 17.2623 24.8617 18.2222 27.2727 18.2222H45.4545V36.4444H27.2727C20.0396 36.4444 13.1026 39.3242 7.988 44.4502C2.87337 49.5762 0 56.5285 0 63.7778C0 71.027 2.87337 77.9794 7.988 83.1054C13.1026 88.2314 20.0396 91.1111 27.2727 91.1111H46.3636C47.8203 98.0875 50.9044 104.619 55.3636 110.172C44.9338 112.106 35.5076 117.636 28.7171 125.802C21.9267 133.969 18.1998 144.258 18.1818 154.889C18.1818 157.305 19.1396 159.623 20.8445 161.331C22.5494 163.04 24.8617 164 27.2727 164C29.6838 164 31.9961 163.04 33.701 161.331C35.4058 159.623 36.3636 157.305 36.3636 154.889C36.3636 147.64 39.237 140.687 44.3516 135.561C49.4663 130.435 56.4032 127.556 63.6364 127.556H90.9091V145.778C90.9091 148.194 91.8669 150.512 93.5718 152.22C95.2766 153.929 97.5889 154.889 100 154.889C102.411 154.889 104.723 153.929 106.428 152.22C108.133 150.512 109.091 148.194 109.091 145.778V127.556H136.364C143.597 127.556 150.534 130.435 155.648 135.561C160.763 140.687 163.636 147.64 163.636 154.889C163.636 157.305 164.594 159.623 166.299 161.331C168.004 163.04 170.316 164 172.727 164C175.138 164 177.451 163.04 179.156 161.331C180.86 159.623 181.818 157.305 181.818 154.889C181.8 144.257 178.072 133.967 171.279 125.8C164.487 117.633 155.059 112.104 144.627 110.172C149.09 104.62 152.177 98.0884 153.636 91.1111H172.727C179.96 91.1111 186.897 88.2314 192.012 83.1054C197.127 77.9794 200 71.027 200 63.7778C200 56.5285 197.127 49.5762 192.012 44.4502C186.897 39.3242 179.96 36.4444 172.727 36.4444ZM172.727 72.8889H145.455C143.043 72.8889 140.731 73.8488 139.026 75.5575C137.321 77.2661 136.364 79.5836 136.364 82C136.364 89.2493 133.49 96.2016 128.376 101.328C123.261 106.454 116.324 109.333 109.091 109.333H90.9091C83.6759 109.333 76.739 106.454 71.6244 101.328C66.5097 96.2016 63.6364 89.2493 63.6364 82C63.6364 79.5836 62.6786 77.2661 60.9737 75.5575C59.2688 73.8488 56.9565 72.8889 54.5455 72.8889H27.2727C24.8617 72.8889 22.5494 71.929 20.8445 70.2203C19.1396 68.5116 18.1818 66.1942 18.1818 63.7778C18.1818 61.3614 19.1396 59.0439 20.8445 57.3352C22.5494 55.6266 24.8617 54.6667 27.2727 54.6667H172.727C175.138 54.6667 177.451 55.6266 179.156 57.3352C180.86 59.0439 181.818 61.3614 181.818 63.7778C181.818 66.1942 180.86 68.5116 179.156 70.2203C177.451 71.929 175.138 72.8889 172.727 72.8889ZM118.182 82C118.182 86.8328 116.266 91.4677 112.856 94.885C109.447 98.3024 104.822 100.222 100 100.222C95.1779 100.222 90.5533 98.3024 87.1435 94.885C83.7338 91.4677 81.8182 86.8328 81.8182 82C81.8488 80.1992 82.1554 78.4138 82.7273 76.7064C83.3235 78.0622 84.2407 79.2517 85.3993 80.172C86.5578 81.0923 87.9228 81.7155 89.376 81.9877C90.8292 82.2598 92.3266 82.1727 93.7386 81.7338C95.1506 81.295 96.4345 80.5177 97.479 79.4692C98.5236 78.4208 99.2972 77.1329 99.733 75.7171C100.169 74.3013 100.253 72.8004 99.9796 71.3444C99.7058 69.8884 99.0819 68.5213 98.1619 67.3615C97.242 66.2018 96.0536 65.2844 94.7 64.6889C96.4111 64.1207 98.1978 63.8135 100 63.7778C104.822 63.7778 109.447 65.6976 112.856 69.1149C116.266 72.5323 118.182 77.1672 118.182 82Z" fill="#2F4858"/>
</svg>
