<svg width="334" height="370" viewBox="0 0 334 370" fill="none" xmlns="http://www.w3.org/2000/svg">
<rect x="72" y="84" width="190" height="133" fill="white"/>
<rect x="72" y="118" width="190" height="133" fill="white"/>
<path d="M154.012 360.871C158.169 363.032 160.249 364.113 163.132 364.673C165.38 365.109 168.62 365.109 170.868 364.673C173.751 364.113 175.831 363.032 179.988 360.871C218.435 340.886 329 275.577 329 185.45V109.036C329 92.8835 329 84.8075 326.351 77.8652C324.012 71.7325 320.211 66.2602 315.277 61.9217C309.692 57.0106 302.112 54.1749 286.953 48.5034L178.376 7.88242C174.166 6.30742 172.062 5.51992 169.896 5.20758C167.976 4.93081 166.024 4.93081 164.104 5.20758C161.938 5.51992 159.834 6.30742 155.624 7.88242L47.0471 48.5034C31.8879 54.1749 24.3084 57.0106 18.7226 61.9217C13.7881 66.2602 9.98697 71.7325 7.64789 77.8652C5 84.8075 5 92.8835 5 109.036V185.45C5 275.577 115.564 340.886 154.012 360.871Z" stroke="#2F4858" stroke-width="9" stroke-linecap="round" stroke-linejoin="round"/>
<path d="M84 257.75C88.98 261.125 93.96 264.5 104.75 264.5C125.5 264.5 125.5 251 146.25 251C157.04 251 162.02 254.375 167 257.75C171.98 261.125 176.96 264.5 187.75 264.5C208.5 264.5 208.5 251 229.25 251C240.04 251 245.02 254.375 250 257.75M84 298.25C88.98 301.625 93.96 305 104.75 305C125.5 305 125.5 291.5 146.25 291.5C157.04 291.5 162.02 294.875 167 298.25C171.98 301.625 176.96 305 187.75 305C208.5 305 208.5 291.5 229.25 291.5C240.04 291.5 245.02 294.875 250 298.25" stroke="#2F4858" stroke-width="9" stroke-linecap="round" stroke-linejoin="round"/>
<path d="M239.727 110.444H221.545V92.2222H239.727C242.138 92.2222 244.451 91.2623 246.156 89.5536C247.86 87.845 248.818 85.5275 248.818 83.1111C248.818 80.6947 247.86 78.3772 246.156 76.6686C244.451 74.9599 242.138 74 239.727 74H185.182C182.771 74 180.458 74.9599 178.754 76.6686C177.049 78.3772 176.091 80.6947 176.091 83.1111C176.091 85.5275 177.049 87.845 178.754 89.5536C180.458 91.2623 182.771 92.2222 185.182 92.2222H203.364V110.444H130.636V92.2222H148.818C151.229 92.2222 153.542 91.2623 155.246 89.5536C156.951 87.845 157.909 85.5275 157.909 83.1111C157.909 80.6947 156.951 78.3772 155.246 76.6686C153.542 74.9599 151.229 74 148.818 74H94.2727C91.8617 74 89.5494 74.9599 87.8445 76.6686C86.1396 78.3772 85.1818 80.6947 85.1818 83.1111C85.1818 85.5275 86.1396 87.845 87.8445 89.5536C89.5494 91.2623 91.8617 92.2222 94.2727 92.2222H112.455V110.444H94.2727C87.0396 110.444 80.1026 113.324 74.988 118.45C69.8734 123.576 67 130.529 67 137.778C67 145.027 69.8734 151.979 74.988 157.105C80.1026 162.231 87.0396 165.111 94.2727 165.111H113.364C114.82 172.088 117.904 178.619 122.364 184.172C111.934 186.106 102.508 191.636 95.7171 199.802C88.9267 207.969 85.1998 218.258 85.1818 228.889C85.1818 231.305 86.1396 233.623 87.8445 235.331C89.5494 237.04 91.8617 238 94.2727 238C96.6838 238 98.9961 237.04 100.701 235.331C102.406 233.623 103.364 231.305 103.364 228.889C103.364 221.64 106.237 214.687 111.352 209.561C116.466 204.435 123.403 201.556 130.636 201.556H157.909V219.778C157.909 222.194 158.867 224.512 160.572 226.22C162.277 227.929 164.589 228.889 167 228.889C169.411 228.889 171.723 227.929 173.428 226.22C175.133 224.512 176.091 222.194 176.091 219.778V201.556H203.364C210.597 201.556 217.534 204.435 222.648 209.561C227.763 214.687 230.636 221.64 230.636 228.889C230.636 231.305 231.594 233.623 233.299 235.331C235.004 237.04 237.316 238 239.727 238C242.138 238 244.451 237.04 246.156 235.331C247.86 233.623 248.818 231.305 248.818 228.889C248.8 218.257 245.072 207.967 238.279 199.8C231.487 191.633 222.059 186.104 211.627 184.172C216.09 178.62 219.177 172.088 220.636 165.111H239.727C246.96 165.111 253.897 162.231 259.012 157.105C264.127 151.979 267 145.027 267 137.778C267 130.529 264.127 123.576 259.012 118.45C253.897 113.324 246.96 110.444 239.727 110.444ZM239.727 146.889H212.455C210.043 146.889 207.731 147.849 206.026 149.557C204.321 151.266 203.364 153.584 203.364 156C203.364 163.249 200.49 170.202 195.376 175.328C190.261 180.454 183.324 183.333 176.091 183.333H157.909C150.676 183.333 143.739 180.454 138.624 175.328C133.51 170.202 130.636 163.249 130.636 156C130.636 153.584 129.679 151.266 127.974 149.557C126.269 147.849 123.957 146.889 121.545 146.889H94.2727C91.8617 146.889 89.5494 145.929 87.8445 144.22C86.1396 142.512 85.1818 140.194 85.1818 137.778C85.1818 135.361 86.1396 133.044 87.8445 131.335C89.5494 129.627 91.8617 128.667 94.2727 128.667H239.727C242.138 128.667 244.451 129.627 246.156 131.335C247.86 133.044 248.818 135.361 248.818 137.778C248.818 140.194 247.86 142.512 246.156 144.22C244.451 145.929 242.138 146.889 239.727 146.889ZM185.182 156C185.182 160.833 183.266 165.468 179.856 168.885C176.447 172.302 171.822 174.222 167 174.222C162.178 174.222 157.553 172.302 154.144 168.885C150.734 165.468 148.818 160.833 148.818 156C148.849 154.199 149.155 152.414 149.727 150.706C150.324 152.062 151.241 153.252 152.399 154.172C153.558 155.092 154.923 155.716 156.376 155.988C157.829 156.26 159.327 156.173 160.739 155.734C162.151 155.295 163.435 154.518 164.479 153.469C165.524 152.421 166.297 151.133 166.733 149.717C167.169 148.301 167.253 146.8 166.98 145.344C166.706 143.888 166.082 142.521 165.162 141.362C164.242 140.202 163.054 139.284 161.7 138.689C163.411 138.121 165.198 137.814 167 137.778C171.822 137.778 176.447 139.698 179.856 143.115C183.266 146.532 185.182 151.167 185.182 156Z" fill="#2F4858"/>
</svg>
