<svg width="950" height="246" viewBox="0 0 950 246" fill="none" xmlns="http://www.w3.org/2000/svg">
<path d="M96.0627 222.476C98.6033 223.797 99.8742 224.458 101.636 224.8C103.01 225.067 104.99 225.067 106.364 224.8C108.126 224.458 109.397 223.797 111.937 222.476C135.433 210.264 203 170.352 203 115.275V68.5776C203 58.7066 203 53.7712 201.381 49.5288C199.952 45.781 197.629 42.4368 194.613 39.7855C191.2 36.7842 186.568 35.0513 177.305 31.5854L110.952 6.76148C108.38 5.79898 107.094 5.31773 105.77 5.12686C104.596 4.95771 103.404 4.95771 102.23 5.12686C100.906 5.31773 99.6205 5.79898 97.0477 6.76148L30.6954 31.5854C21.4315 35.0513 16.7996 36.7842 13.386 39.7855C10.3705 42.4368 8.04759 45.781 6.61816 49.5288C5 53.7712 5 58.7066 5 68.5776V115.275C5 170.352 72.567 210.264 96.0627 222.476Z" stroke="#2F4858" stroke-width="9" stroke-linecap="round" stroke-linejoin="round"/>
<path d="M53 160C56.06 162 59.12 164 65.75 164C78.5 164 78.5 156 91.25 156C97.88 156 100.94 158 104 160C107.06 162 110.12 164 116.75 164C129.5 164 129.5 156 142.25 156C148.88 156 151.94 158 155 160M53 184C56.06 186 59.12 188 65.75 188C78.5 188 78.5 180 91.25 180C97.88 180 100.94 182 104 184C107.06 186 110.12 188 116.75 188C129.5 188 129.5 180 142.25 180C148.88 180 151.94 182 155 184" stroke="#2F4858" stroke-width="9" stroke-linecap="round" stroke-linejoin="round"/>
<path d="M148.364 69.4444H137.273V58.2222H148.364C149.834 58.2222 151.245 57.6311 152.285 56.5788C153.325 55.5265 153.909 54.0993 153.909 52.6111C153.909 51.123 153.325 49.6957 152.285 48.6435C151.245 47.5912 149.834 47 148.364 47H115.091C113.62 47 112.21 47.5912 111.17 48.6435C110.13 49.6957 109.545 51.123 109.545 52.6111C109.545 54.0993 110.13 55.5265 111.17 56.5788C112.21 57.6311 113.62 58.2222 115.091 58.2222H126.182V69.4444H81.8182V58.2222H92.9091C94.3798 58.2222 95.7903 57.6311 96.8303 56.5788C97.8703 55.5265 98.4545 54.0993 98.4545 52.6111C98.4545 51.123 97.8703 49.6957 96.8303 48.6435C95.7903 47.5912 94.3798 47 92.9091 47H59.6364C58.1656 47 56.7551 47.5912 55.7151 48.6435C54.6752 49.6957 54.0909 51.123 54.0909 52.6111C54.0909 54.0993 54.6752 55.5265 55.7151 56.5788C56.7551 57.6311 58.1656 58.2222 59.6364 58.2222H70.7273V69.4444H59.6364C55.2241 69.4444 50.9926 71.218 47.8727 74.3748C44.7528 77.5317 43 81.8133 43 86.2778C43 90.7423 44.7528 95.0239 47.8727 98.1807C50.9926 101.338 55.2241 103.111 59.6364 103.111H71.2818C72.1704 107.408 74.0517 111.43 76.7718 114.85C70.4096 116.041 64.6596 119.446 60.5175 124.476C56.3753 129.505 54.1019 135.842 54.0909 142.389C54.0909 143.877 54.6752 145.304 55.7151 146.357C56.7551 147.409 58.1656 148 59.6364 148C61.1071 148 62.5176 147.409 63.5576 146.357C64.5976 145.304 65.1818 143.877 65.1818 142.389C65.1818 137.924 66.9346 133.643 70.0545 130.486C73.1744 127.329 77.4059 125.556 81.8182 125.556H98.4545V136.778C98.4545 138.266 99.0388 139.693 100.079 140.745C101.119 141.798 102.529 142.389 104 142.389C105.471 142.389 106.881 141.798 107.921 140.745C108.961 139.693 109.545 138.266 109.545 136.778V125.556H126.182C130.594 125.556 134.826 127.329 137.946 130.486C141.065 133.643 142.818 137.924 142.818 142.389C142.818 143.877 143.402 145.304 144.442 146.357C145.482 147.409 146.893 148 148.364 148C149.834 148 151.245 147.409 152.285 146.357C153.325 145.304 153.909 143.877 153.909 142.389C153.898 135.841 151.624 129.504 147.48 124.474C143.337 119.445 137.586 116.04 131.223 114.85C133.945 111.431 135.828 107.408 136.718 103.111H148.364C152.776 103.111 157.007 101.338 160.127 98.1807C163.247 95.0239 165 90.7423 165 86.2778C165 81.8133 163.247 77.5317 160.127 74.3748C157.007 71.218 152.776 69.4444 148.364 69.4444ZM148.364 91.8889H131.727C130.257 91.8889 128.846 92.4801 127.806 93.5323C126.766 94.5846 126.182 96.0118 126.182 97.5C126.182 101.964 124.429 106.246 121.309 109.403C118.189 112.56 113.958 114.333 109.545 114.333H98.4545C94.0423 114.333 89.8108 112.56 86.6909 109.403C83.5709 106.246 81.8182 101.964 81.8182 97.5C81.8182 96.0118 81.2339 94.5846 80.194 93.5323C79.154 92.4801 77.7435 91.8889 76.2727 91.8889H59.6364C58.1656 91.8889 56.7551 91.2977 55.7151 90.2454C54.6752 89.1931 54.0909 87.7659 54.0909 86.2778C54.0909 84.7896 54.6752 83.3624 55.7151 82.3101C56.7551 81.2578 58.1656 80.6667 59.6364 80.6667H148.364C149.834 80.6667 151.245 81.2578 152.285 82.3101C153.325 83.3624 153.909 84.7896 153.909 86.2778C153.909 87.7659 153.325 89.1931 152.285 90.2454C151.245 91.2977 149.834 91.8889 148.364 91.8889ZM115.091 97.5C115.091 100.476 113.922 103.331 111.842 105.435C109.763 107.54 106.941 108.722 104 108.722C101.059 108.722 98.2375 107.54 96.1575 105.435C94.0776 103.331 92.9091 100.476 92.9091 97.5C92.9278 96.391 93.1148 95.2915 93.4636 94.2399C93.8274 95.0749 94.3868 95.8075 95.0936 96.3742C95.8003 96.941 96.6329 97.3248 97.5194 97.4924C98.4058 97.66 99.3193 97.6064 100.181 97.3361C101.042 97.0658 101.825 96.5871 102.462 95.9414C103.099 95.2957 103.571 94.5025 103.837 93.6306C104.103 92.7587 104.155 91.8344 103.988 90.9377C103.821 90.041 103.44 89.1991 102.879 88.4849C102.318 87.7706 101.593 87.2056 100.767 86.8389C101.811 86.4889 102.901 86.2998 104 86.2778C106.941 86.2778 109.763 87.4601 111.842 89.5647C113.922 91.6693 115.091 94.5237 115.091 97.5Z" fill="#2F4858"/>
<path d="M251.58 171.54V151.92L310.98 72H341.58L283.44 151.92L269.22 147.78H368.4V171.54H251.58ZM319.44 198V171.54L320.34 147.78V124.2H347.88V198H319.44ZM425.914 200.16C415.834 200.16 406.174 198.84 396.934 196.2C387.694 193.44 380.254 189.9 374.614 185.58L384.514 163.62C389.914 167.46 396.274 170.64 403.594 173.16C411.034 175.56 418.534 176.76 426.094 176.76C431.854 176.76 436.474 176.22 439.954 175.14C443.554 173.94 446.194 172.32 447.874 170.28C449.554 168.24 450.394 165.9 450.394 163.26C450.394 159.9 449.074 157.26 446.434 155.34C443.794 153.3 440.314 151.68 435.994 150.48C431.674 149.16 426.874 147.96 421.594 146.88C416.434 145.68 411.214 144.24 405.934 142.56C400.774 140.88 396.034 138.72 391.714 136.08C387.394 133.44 383.854 129.96 381.094 125.64C378.454 121.32 377.134 115.8 377.134 109.08C377.134 101.88 379.054 95.34 382.894 89.46C386.854 83.46 392.734 78.72 400.534 75.24C408.454 71.64 418.354 69.84 430.234 69.84C438.154 69.84 445.954 70.8 453.634 72.72C461.314 74.52 468.094 77.28 473.974 81L464.974 103.14C459.094 99.78 453.214 97.32 447.334 95.76C441.454 94.08 435.694 93.24 430.054 93.24C424.414 93.24 419.794 93.9 416.194 95.22C412.594 96.54 410.014 98.28 408.454 100.44C406.894 102.48 406.114 104.88 406.114 107.64C406.114 110.88 407.434 113.52 410.074 115.56C412.714 117.48 416.194 119.04 420.514 120.24C424.834 121.44 429.574 122.64 434.734 123.84C440.014 125.04 445.234 126.42 450.394 127.98C455.674 129.54 460.474 131.64 464.794 134.28C469.114 136.92 472.594 140.4 475.234 144.72C477.994 149.04 479.374 154.5 479.374 161.1C479.374 168.18 477.394 174.66 473.434 180.54C469.474 186.42 463.534 191.16 455.614 194.76C447.814 198.36 437.914 200.16 425.914 200.16ZM482.739 198L538.899 72H567.699L624.039 198H593.439L547.359 86.76H558.879L512.619 198H482.739ZM510.819 171L518.559 148.86H583.359L591.279 171H510.819ZM668.056 198L613.696 72H645.196L692.716 183.6H674.176L722.416 72H751.396L696.856 198H668.056ZM788.737 122.76H849.397V145.44H788.737V122.76ZM790.897 174.6H859.477V198H761.917V72H857.137V95.4H790.897V174.6Z" fill="#2F4858"/>
</svg>
